<?xml version="1.0" encoding="utf-8"?><svg viewBox="0 0 101 77" xmlns="http://www.w3.org/2000/svg" xmlns:xlink="http://www.w3.org/1999/xlink"><style>:root>svg{display:none}:root>svg:target{display:block}</style><svg fill="none" viewBox="0 0 50 26" id="arrow-left-icon" xmlns="http://www.w3.org/2000/svg"><path d="M50 11H7.7l8.1-8.2L13 0 0 13l13 13 2.8-2.8L7.7 15H50v-4z" fill="#000"/></svg><svg fill="none" viewBox="0 0 50 26" id="arrow-right-icon" xmlns="http://www.w3.org/2000/svg"><path d="M0 11h42.3l-8.1-8.2L37 0l13 13-13 13-2.8-2.8 8.1-8.2H0v-4z" fill="#000"/></svg><svg fill="none" viewBox="0 0 35 34" id="ball-icon" xmlns="http://www.w3.org/2000/svg"><path d="M.306 13.953a16.044 16.044 0 0 0 0 6.232l4.176-3.165-4.176-3.067zM24.852 1.586C19.963-.59 14.259-.59 9.269 1.982l7.638 5.54 7.945-5.936zm9.676 11.476-4.889 3.66 4.99 3.66c.51-2.373.51-4.946-.101-7.32zM9.37 32.057c4.89 2.473 10.899 2.671 15.991.099l-8.25-6.035-7.74 5.936zM8.046 14.249 1.732 9.698c-.306.692-.612 1.385-.815 2.078l5.398 3.957 1.731-1.484zm10.899 10.586 8.453 6.134c.306-.198.611-.396.815-.594.306-.198.611-.495.917-.791l-8.454-6.134-1.731 1.385zm-7.334-13.257L4.074 6.137c-.51.495-.917 1.088-1.324 1.682l7.028 5.144 1.833-1.385zM22.51 22.163l8.25 6.035c.509-.494.916-1.088 1.324-1.681l-7.843-5.739-1.732 1.386zM15.176 8.907 7.333 3.169c-.203.099-.407.297-.61.396-.408.296-.816.593-1.121.989l7.843 5.64 1.731-1.287zm10.898 10.487 7.13 5.144c.306-.692.611-1.286.917-1.979l-6.213-4.55-1.834 1.385zm.816-16.72L.916 22.362c.203.692.509 1.385.815 2.077L28.722 3.96c-.509-.494-1.12-.89-1.833-1.286zm4.379 3.858c-.306-.395-.611-.791-.917-1.088L2.852 26.22c.204.494.51.89.815 1.187.102.198.305.396.407.494L31.778 7.127c-.204-.198-.305-.396-.51-.594zm1.629 2.375L5.704 29.484c.509.495 1.12.99 1.731 1.385l26.482-19.984c-.306-.692-.611-1.385-1.019-1.978z" fill="#63D1BB"/></svg><svg fill="none" viewBox="0 0 32 22" id="camera-icon" xmlns="http://www.w3.org/2000/svg"><path d="m26 10 6-4v16l-6-4v-8zm-2 0v8c0 2.2-1.8 4-4 4H4c-2.2 0-4-1.8-4-4v-8c0-2.2 1.8-4 4-4h10c0-1.1.9-2 2-2V2H5c-.6 0-1-.4-1-1s.4-1 1-1h12c.6 0 1 .4 1 1v3c1.1 0 2 .9 2 2 2.2 0 4 1.8 4 4zm-12 0H4v8h8v-8zm8 1c0-.6-.4-1-1-1h-4c-.6 0-1 .4-1 1s.4 1 1 1h4c.6 0 1-.4 1-1z" fill="#63D1BB"/></svg><svg fill="none" viewBox="0 0 20 19" id="cart-icon" xmlns="http://www.w3.org/2000/svg"><path d="M19.227 7.238h-3.382L12.56.402C12.367 0 11.98-.1 11.594.101c-.386.2-.483.603-.29 1.005L14.3 7.238H5.508l2.995-6.132c.194-.402 0-.804-.29-1.005-.386-.202-.772 0-.966.301L3.961 7.238H.773A.777.777 0 0 0 0 8.042c0 .402.29.805.773.805h.193l.87 3.015c-.193.101-.29.302-.29.604 0 .402.29.703.676.703L3.865 19h12.27l1.643-5.83c.386 0 .676-.302.676-.704 0-.201-.096-.503-.29-.604l.87-3.015h.193A.777.777 0 0 0 20 8.042a.777.777 0 0 0-.773-.804zM14.88 17.392H4.831l-1.16-4.323h12.464L14.88 17.39zm1.546-5.831H3.188l-.773-2.815h14.783l-.773 2.815z" fill="#000"/></svg><svg fill="none" viewBox="0 0 33 38" id="flower-icon" xmlns="http://www.w3.org/2000/svg"><path d="M16.5 38C25.575 38 33 30.645 33 21.656c-9.075 0-16.5 7.253-16.5 16.344zM4.744 16.65c0 2.554 2.062 4.495 4.537 4.495a4.54 4.54 0 0 0 2.578-.817v.306c0 2.554 2.063 4.495 4.538 4.495 2.578 0 4.537-2.043 4.537-4.495v-.306c.722.51 1.65.817 2.578.817 2.579 0 4.538-2.043 4.538-4.494 0-1.84-1.031-3.371-2.578-4.086 1.547-.715 2.578-2.248 2.578-4.087 0-2.553-2.063-4.494-4.538-4.494a4.54 4.54 0 0 0-2.578.817v-.306C20.934 1.94 18.872 0 16.397 0c-2.578 0-4.538 2.043-4.538 4.495V4.8a4.542 4.542 0 0 0-2.578-.817c-2.578 0-4.537 2.043-4.537 4.494 0 1.84 1.031 3.372 2.578 4.087-1.444.715-2.578 2.247-2.578 4.086zM16.5 7.969c2.578 0 4.538 2.043 4.538 4.494 0 2.554-2.063 4.495-4.538 4.495-2.578 0-4.537-2.043-4.537-4.495 0-2.451 1.959-4.494 4.537-4.494zM0 21.656C0 30.646 7.425 38 16.5 38c0-9.091-7.425-16.344-16.5-16.344z" fill="#63D1BB"/></svg><svg fill="none" viewBox="0 0 34 27" id="heart-icon" xmlns="http://www.w3.org/2000/svg"><path d="M34 8.45C34 3.788 29.982 0 25.036 0A9.248 9.248 0 0 0 17 4.662C15.558 1.942 12.467 0 8.964 0 4.018 0 0 3.788 0 8.45 0 17.288 15.146 27 17 27c1.958 0 17-9.615 17-18.55z" fill="#63D1BB"/></svg><svg fill="none" viewBox="0 0 20 2" id="menu-icon" xmlns="http://www.w3.org/2000/svg"><path d="M20 0H0v2h20V0z" fill="#231F20"/></svg><svg fill="none" viewBox="0 0 47 27" id="money-icon" xmlns="http://www.w3.org/2000/svg"><path d="M43.066 0H3.933C1.715 0 0 1.681 0 3.857v19.286C0 25.319 1.715 27 3.933 27h39.133C45.286 27 47 25.319 47 23.143V3.857C47 1.78 45.184 0 43.066 0zM3.026 24.725V2.77H43.57v21.956H3.026z" fill="#63D1BB"/><path d="M6.96 20.868h32.677V6.627H6.96v14.241zM23.5 8.506c2.925 0 5.346 2.373 5.346 5.242 0 2.868-2.421 5.241-5.346 5.241-2.925 0-5.346-2.373-5.346-5.242 0-2.967 2.421-5.241 5.346-5.241z" fill="#63D1BB"/></svg><svg fill="none" viewBox="0 0 101 77" id="play-icon" xmlns="http://www.w3.org/2000/svg"><path d="M97 18.1s-.9-7-3.8-10.1c-3.6-4-7.7-4.1-9.5-4.3-13.3-1-33.3-1-33.3-1h-.1s-20 0-33.3 1c-1.9.2-5.9.3-9.5 4.3-2.8 3.1-3.8 10.1-3.8 10.1s-.9 8.2-.9 16.4v7.7c0 8.2.9 16.4.9 16.4s.9 7 3.8 10.1c3.6 4 8.4 3.9 10.5 4.3 7.6.8 32.4 1 32.4 1s20 0 33.3-1c1.9-.2 5.9-.3 9.5-4.3C96 65.6 97 58.6 97 58.6s.9-8.2.9-16.4v-7.7c0-8.2-.9-16.4-.9-16.4z" fill="#63D1BB"/><path d="M50.3 76.8c-1 0-25-.3-32.6-1h-.2c-.3-.1-.7-.1-1.1-.2-2.5-.3-7.2-.9-10.8-5C2.2 67 1.2 59.8 1.1 59c0-.3-1-8.5-1-16.7v-7.7c0-8.3.9-16.4.9-16.7v-.1c.1-.8 1.2-7.9 4.5-11.6 4-4.4 8.5-4.9 10.7-5.1.2 0 .4 0 .5-.1h.1c13.3-1 33.3-1 33.5-1h.1c.2 0 20.2 0 33.5 1h.1c.2 0 .3 0 .5.1 2.2.2 6.7.7 10.7 5.1 3.4 3.6 4.4 10.8 4.5 11.6 0 .3 1 8.5 1 16.8v7.7c0 8.3-.9 16.4-1 16.7v.1c-.1.8-1.2 8-4.5 11.6-4 4.4-8.5 4.9-10.7 5.1-.2 0-.4 0-.5.1h-.1c-13.3.9-33.4.9-33.6.9zm-31.9-6.4c7.5.7 31.2 1 32 1 .7 0 20.1 0 33-1 .2 0 .4 0 .6-.1 1.8-.2 4.6-.5 7.2-3.3 1.8-2 2.9-6.9 3.1-8.6.1-.5.9-8.4.9-16.1v-7.7c0-7.8-.9-15.6-1-16.1-.3-2.4-1.4-6.8-3.1-8.5-2.6-2.9-5.4-3.1-7.2-3.3-.2 0-.4 0-.6-.1-13.1-1-32.8-1-33-1h-.1c-.2 0-20 0-33 1-.2 0-.4 0-.6.1-1.8.2-4.6.5-7.2 3.3-1.8 2-2.9 6.9-3.1 8.6-.1.6-.9 8.4-.9 16.1v7.7c0 7.7.9 15.6.9 16.1.3 2.4 1.4 6.8 3.1 8.5 2.3 2.6 5.3 3 7.5 3.3.6-.1 1 0 1.5.1z" fill="#fff"/><path d="M38.4 20.5v35.7l29.8-17.8-29.8-17.9z" fill="#fff"/></svg><svg fill="none" viewBox="0 0 33 32" id="present-icon" xmlns="http://www.w3.org/2000/svg"><path d="M3.028 32h12.614V18.272H3.028V32zM31.385 8.691h-7.367c.505-.296 1.01-.493 1.413-.79 1.615-1.086 2.422-2.568 2.422-3.95 0-1.186-.605-2.173-1.413-2.865C25.633.396 24.523 0 23.413 0c-1.211 0-2.422.395-3.33 1.086-1.514.988-2.624 2.47-3.432 4.05 0 .099-.1.197-.1.197-.303-.592-.606-1.185-1.01-1.777-.706-.988-1.514-1.877-2.523-2.47C12.01.494 10.9 0 9.688 0c-1.21 0-2.321.494-3.23 1.284-.807.79-1.412 1.876-1.412 3.062 0 .691.202 1.481.605 2.173.606.888 1.413 1.58 2.624 2.172h-6.66C.706 8.691 0 9.383 0 10.271V16.1h15.541V8.69h1.918v7.41H33v-5.827c0-.89-.706-1.58-1.615-1.58zM8.881 6.42c-.606-.395-1.01-.79-1.211-1.087-.202-.395-.303-.691-.303-.987 0-.494.202-.988.706-1.482.404-.395 1.01-.691 1.615-.691.707 0 1.413.197 2.018.691a7.6 7.6 0 0 1 2.624 3.16c.303.692.606 1.383.808 2.075-3.129-.297-5.147-.988-6.257-1.68zm10.596-1.58c.606-.79 1.211-1.482 1.918-1.877.706-.494 1.412-.691 2.018-.691.605 0 1.11.197 1.514.493.403.297.605.692.605 1.186 0 .493-.303 1.284-1.514 2.074-1.11.79-3.128 1.679-6.156 2.271a10.88 10.88 0 0 1 1.615-3.456zM17.46 32h12.614V18.272H17.46V32z" fill="#63D1BB"/></svg><svg fill="none" viewBox="0 0 55 23" id="rocket-icon" xmlns="http://www.w3.org/2000/svg"><path d="M40.947 5.75A47.823 47.823 0 0 0 28.41 4.065c-2.932 0-5.56.198-7.785.594L13.75 0H.101l5.864 6.147h8.493c-4.651 1.586-6.875 3.47-6.875 3.47v3.767s2.325 1.883 6.976 3.47H5.864L0 23h13.649l6.875-4.66c2.325.397 4.853.595 7.785.595 4.55 0 8.796-.694 12.537-1.685-1.214-1.784-1.921-3.668-1.921-5.85.1-1.982.91-3.865 2.022-5.65zm3.538.991c-1.314 1.586-2.022 3.173-2.022 4.759 0 1.586.708 3.172 2.022 4.759C50.955 14.077 55 11.499 55 11.499s-4.044-2.577-10.515-4.758z" fill="#63D1BB"/></svg><svg fill="none" viewBox="0 0 18 18" id="search-icon" xmlns="http://www.w3.org/2000/svg"><path d="m17.693 16.057-3.477-3.477c1.023-1.33 1.534-2.966 1.534-4.705C15.75 3.477 12.273 0 7.875 0S0 3.477 0 7.875s3.477 7.875 7.875 7.875c1.739 0 3.375-.614 4.704-1.534l3.478 3.477c.204.205.409.307.818.307.614 0 1.125-.511 1.125-1.125 0-.204-.102-.511-.307-.818zM2.25 7.875c0-3.068 2.557-5.625 5.625-5.625S13.5 4.807 13.5 7.875 10.943 13.5 7.875 13.5 2.25 10.943 2.25 7.875z" fill="#000"/></svg><svg fill="none" viewBox="0 0 20 18" id="telegram-icon" xmlns="http://www.w3.org/2000/svg"><path fill-rule="evenodd" clip-rule="evenodd" d="M19.46.653c.18.15.265.382.227.611l-2.626 15.757a.657.657 0 0 1-1.012.439l-7.878-5.253a.656.656 0 0 1-.149-.956l2.611-3.263-4.36 2.906a.657.657 0 0 1-.658.041L.363 8.31a.657.657 0 0 1 .073-1.205L18.819.538a.657.657 0 0 1 .642.115zM2.327 7.823 5.862 9.59l7.561-5.04a.656.656 0 0 1 .877.956l-4.805 6.006 6.438 4.292L18.208 2.15 2.326 7.823z" fill="#231F20"/></svg><svg fill="none" viewBox="0 0 24 17" id="tick-icon" xmlns="http://www.w3.org/2000/svg"><path d="m23.963 1.684-.994-.992L8.766 14.786 1.735 7.775l-.994.991 7.03 7.012.995.991 1.065-.991L23.963 1.684z" fill="#000"/></svg><svg fill="none" viewBox="0 0 27 18" id="vk-icon" xmlns="http://www.w3.org/2000/svg"><path d="M0 2.839c0-.855.515-1.316 1.545-1.383l3.97.025a.52.52 0 0 1 .533.377c.409 1.257.866 2.343 1.372 3.257.506.913 1.168 1.965 1.985 3.156a.36.36 0 0 0 .346.226c.125 0 .222-.059.293-.176l.08-.277.027-4.35c0-.302-.075-.503-.226-.604-.151-.1-.431-.176-.84-.226-.32-.05-.48-.235-.48-.553 0-.067.01-.118.027-.151.373-1.09 1.44-1.635 3.198-1.635L13.322.5c.675 0 1.234.16 1.678.478.444.318.666.821.666 1.509v5.708c.125.084.24.126.347.126.266 0 .497-.15.692-.453 1.954-2.582 3.011-4.308 3.17-5.18 0-.017.019-.059.054-.126.125-.251.329-.47.613-.654.284-.184.533-.31.746-.377a.554.554 0 0 1 .24-.05h4.13l.266.025c.355 0 .63.16.826.478.07.1.12.21.146.327.027.117.045.234.054.352.009.117.013.184.013.2v.177c-.124.687-.44 1.42-.946 2.2-.506.78-1.15 1.622-1.931 2.528-.782.905-1.27 1.5-1.466 1.785-.16.201-.24.386-.24.553 0 .135.071.286.213.453l3.89 4.627c.213.269.32.562.32.88 0 .386-.16.705-.48.956-.32.252-.701.394-1.145.428l-.453.025h-4.05a.855.855 0 0 0-.106.012.862.862 0 0 1-.107.013c-.39 0-.755-.16-1.092-.478-.125-.134-.96-1.123-2.505-2.967a1.387 1.387 0 0 0-.373-.327c-.07.268-.164.654-.28 1.157-.115.503-.2.863-.253 1.081l-.08.428c-.177.586-.55.938-1.119 1.056l-.373.025h-2.61c-1.475 0-2.945-.637-4.41-1.911-1.466-1.275-2.784-2.922-3.957-4.942C2.238 8.602 1.146 6.25.133 3.568A1.916 1.916 0 0 1 0 2.838zm16.013 6.513c-.373 0-.71-.096-1.013-.29-.302-.192-.453-.456-.453-.791V2.487c0-.336-.089-.575-.266-.717-.178-.143-.489-.214-.933-.214l-1.518.05c-.764 0-1.341.126-1.732.378.781.352 1.172.922 1.172 1.71V8.12a1.5 1.5 0 0 1-.533 1.043 1.59 1.59 0 0 1-1.066.415c-.532 0-.94-.243-1.225-.729C7.06 6.871 6.03 4.993 5.356 3.216l-.24-.654-3.544-.025c-.231 0-.36.013-.386.038-.027.025-.04.096-.04.213 0 .151.017.31.053.478l.56 1.409c1.491 3.638 3.112 6.505 4.862 8.6 1.75 2.096 3.468 3.144 5.155 3.144h2.665c.106 0 .186-.03.24-.088.053-.06.097-.172.133-.34l.053-.251.506-2.213c.142-.302.267-.503.373-.604a.975.975 0 0 1 .693-.277c.426 0 .861.243 1.305.73l2.265 2.716c.142.218.293.327.453.327h4.396c.533 0 .8-.126.8-.378a.466.466 0 0 0-.08-.251l-3.864-4.552c-.302-.352-.453-.73-.453-1.131 0-.403.142-.788.427-1.157.23-.336.679-.893 1.345-1.673a37.63 37.63 0 0 0 1.745-2.188c.498-.679.826-1.295.986-1.848l.08-.327a.371.371 0 0 1-.027-.163.574.574 0 0 0-.026-.189h-4.183c-.267.1-.48.252-.64.453l-.16.478c-.444 1.156-1.607 2.942-3.49 5.356a1.892 1.892 0 0 1-1.305.503z" fill="#231F20"/></svg><svg fill="none" viewBox="0 0 24 20" id="youtube-icon" xmlns="http://www.w3.org/2000/svg"><path d="m15.85 9.293-5.236-3.491a.655.655 0 0 0-1.014.545v6.982a.655.655 0 0 0 1.014.546l5.237-3.491a.655.655 0 0 0 0-1.091zm-4.94 2.814V7.57l3.403 2.27-3.404 2.268zm12.48-8.563a2.4 2.4 0 0 0-1.452-1.637C18.218.478 12.251.5 12 .5c-.25 0-6.218-.022-9.938 1.407A2.4 2.4 0 0 0 .61 3.544C.327 4.613 0 6.576 0 9.838c0 3.262.327 5.226.61 6.295a2.4 2.4 0 0 0 1.452 1.636c3.72 1.43 9.687 1.407 9.938 1.407h.076c.753 0 6.317-.043 9.862-1.407a2.4 2.4 0 0 0 1.451-1.636c.284-1.07.611-3.033.611-6.295s-.327-5.225-.61-6.294zm-1.266 12.261a1.09 1.09 0 0 1-.655.742c-3.49 1.342-9.404 1.32-9.469 1.32-.066 0-5.978.022-9.47-1.32a1.09 1.09 0 0 1-.654-.742c-.261-1.003-.567-2.847-.567-5.967 0-3.12.306-4.963.567-5.967a1.09 1.09 0 0 1 .655-.742C6.02 1.787 11.934 1.81 12 1.81c.066 0 5.978-.022 9.47 1.32a1.092 1.092 0 0 1 .654.742c.262 1.004.567 2.847.567 5.967 0 3.12-.305 4.964-.567 5.968z" fill="#231F20"/></svg></svg>